<svg width="212" height="47" viewBox="0 0 212 47" fill="none" xmlns="http://www.w3.org/2000/svg">
<g clip-path="url(#clip0_169_126)">
<path d="M72.881 30.1044C72.881 33.9449 69.671 36.8708 65.3547 36.8708H55.9717V11.2598H65.3451C69.6614 11.2598 72.8714 14.1857 72.8714 18.0286V18.1006C72.8714 20.7409 71.8377 22.4547 69.7727 23.7365C71.9514 25.0518 72.8714 27.0272 72.8714 29.3699L72.881 30.1044ZM60.6317 21.653H65.3911C67.0517 21.653 68.2331 20.2992 68.2331 18.6526V18.4606C68.2331 16.7396 67.0227 15.4603 65.2797 15.4603H60.6317V21.653ZM60.6317 32.6631H65.2797C67.0154 32.6631 68.2331 31.3838 68.2331 29.6652V28.8587C68.2331 27.2145 67.0227 25.8607 65.3547 25.8607H60.6317V32.6631Z" fill="#FF5400"/>
<path d="M97.1619 29.8475C97.1619 34.0552 93.9156 37.238 89.6356 37.238H87.7909C83.511 37.238 80.2646 34.0552 80.2646 29.8475V18.2877C80.2646 14.08 83.511 10.8972 87.7909 10.8972H89.6356C93.9156 10.8972 97.1619 14.08 97.1619 18.2877V29.8475ZM84.9126 29.8475C84.9126 31.5661 86.123 32.8478 87.8636 32.8478H89.5581C91.2939 32.8478 92.5115 31.5661 92.5115 29.8475V18.2877C92.5115 16.5667 91.3011 15.2873 89.5581 15.2873H87.8636C86.1303 15.2873 84.9126 16.5667 84.9126 18.2877V29.8475Z" fill="#FF5400"/>
<path d="M103.439 36.8708L110.634 11.2598H116.87L124.101 36.8708H119.083L117.754 31.787H109.787L108.458 36.8708H103.439ZM110.782 27.8361H116.735L113.856 16.6772L113.781 15.7171L113.709 16.6772L110.782 27.8361Z" fill="#FF5400"/>
<path d="M147.498 20.0064C147.521 21.4955 147.08 22.9553 146.234 24.1863C145.389 25.4172 144.181 26.3591 142.775 26.8832L148.089 36.8708H142.959L138.052 27.3969H135.026V36.8708H130.378V11.2598H139.974C144.254 11.2598 147.5 14.4425 147.5 18.6502L147.498 20.0064ZM142.848 18.6526C142.848 16.934 141.637 15.6523 139.897 15.6523H135.026V23.0068H139.897C141.63 23.0068 142.848 21.725 142.848 20.0064V18.6526Z" fill="#FF5400"/>
<path d="M155.838 11.2598H165.211C169.491 11.2598 172.738 14.4425 172.738 18.6502V29.4779C172.738 33.6856 169.491 36.8684 165.211 36.8684H155.838V11.2598ZM165.136 32.4783C166.87 32.4783 168.09 31.1989 168.09 29.4779V18.6526C168.09 16.934 166.879 15.6523 165.136 15.6523H160.488V32.4807L165.136 32.4783Z" fill="#FF5400"/>
<path d="M181.598 36.8708V11.2598H186.246V36.8708H181.598Z" fill="#FF5400"/>
<path d="M212 29.8475C212 34.0552 208.754 37.238 204.474 37.238H202.629C198.347 37.238 195.101 34.0552 195.101 29.8475V18.2877C195.101 14.08 198.347 10.8972 202.629 10.8972H204.474C208.754 10.8972 212 14.08 212 18.2877V29.8475ZM199.751 29.8475C199.751 31.5661 200.961 32.8478 202.702 32.8478H204.397C206.132 32.8478 207.347 31.5661 207.347 29.8475V18.2877C207.347 16.5667 206.137 15.2873 204.397 15.2873H202.702C200.969 15.2873 199.751 16.5667 199.751 18.2877V29.8475Z" fill="#FF5400"/>
<mask id="mask0_169_126" style="mask-type:luminance" maskUnits="userSpaceOnUse" x="-22" y="-22" width="93" height="91">
<path d="M70.2547 -21.8643H-21.252V68.8666H70.2547V-21.8643Z" fill="white"/>
</mask>
<g mask="url(#mask0_169_126)">
<mask id="mask1_169_126" style="mask-type:luminance" maskUnits="userSpaceOnUse" x="-22" y="-22" width="93" height="91">
<path d="M70.2547 -21.8643H-21.252V68.8666H70.2547V-21.8643Z" fill="white"/>
</mask>
<g mask="url(#mask1_169_126)">
<path d="M10.6211 33.1022L24.64 47.0023L34.8074 36.9211C34.8074 36.9211 25.2404 22.1761 10.6211 33.1022ZM24.3398 41.724C23.8802 41.724 23.4309 41.5889 23.0487 41.3357C22.6665 41.0825 22.3686 40.7226 22.1927 40.3016C22.0169 39.8805 21.9708 39.4172 22.0605 38.9702C22.1502 38.5232 22.3715 38.1126 22.6965 37.7904C23.0215 37.4681 23.4356 37.2487 23.8864 37.1598C24.3372 37.0708 24.8045 37.1165 25.2292 37.2909C25.6538 37.4653 26.0168 37.7606 26.2721 38.1396C26.5275 38.5185 26.6638 38.964 26.6638 39.4198C26.6638 40.0309 26.419 40.617 25.9831 41.0491C25.5473 41.4813 24.9562 41.724 24.3398 41.724Z" fill="#FFBD00"/>
<path d="M27.9316 1.28163C27.52 0.873743 27.0311 0.550638 26.493 0.330933C25.9549 0.111227 25.3783 -0.000733608 24.7964 0.00149754C24.2145 0.0037287 23.6388 0.120108 23.1025 0.343933C22.5661 0.567757 22.0798 0.894601 21.6714 1.30563L14.668 8.35047C19.6911 19.4974 30.0353 17.5004 30.0353 17.5004C32.214 10.8828 35.959 9.25058 35.959 9.25058L27.9316 1.28163ZM24.4505 8.5737C24.0059 8.57322 23.5714 8.4421 23.2019 8.1969C22.8325 7.9517 22.5446 7.60341 22.3747 7.19606C22.2048 6.7887 22.1604 6.34055 22.2473 5.90822C22.3341 5.47589 22.5483 5.07879 22.8626 4.76708C23.177 4.45537 23.5775 4.24305 24.0135 4.15693C24.4496 4.07082 24.9016 4.11477 25.3124 4.28325C25.7232 4.45172 26.0745 4.73716 26.3218 5.10349C26.5691 5.46982 26.7013 5.90061 26.7018 6.34143C26.7021 6.63467 26.6441 6.92508 26.5311 7.19606C26.4181 7.46703 26.2522 7.71324 26.0431 7.92059C25.834 8.12794 25.5857 8.29235 25.3124 8.40442C25.0391 8.51649 24.7462 8.57402 24.4505 8.5737Z" fill="#FFBD00"/>
<path d="M11.8698 10.8756L0.0078125 22.637L8.72273 31.278C8.72273 31.278 11.6277 28.256 15.7721 26.9575C15.7721 26.9575 18.9192 15.6089 11.8722 10.8516M7.67452 24.8764C7.2594 24.8764 6.85362 24.7544 6.50846 24.5257C6.16331 24.297 5.8943 23.972 5.73544 23.5918C5.57658 23.2115 5.53502 22.7931 5.616 22.3894C5.69699 21.9857 5.89688 21.6149 6.19041 21.3239C6.48394 21.0328 6.85792 20.8346 7.26505 20.7543C7.67219 20.674 8.0942 20.7152 8.47771 20.8727C8.86122 21.0303 9.18902 21.297 9.41964 21.6392C9.65027 21.9814 9.77336 22.3838 9.77336 22.7954C9.77336 23.3473 9.55223 23.8766 9.15862 24.2669C8.76501 24.6572 8.23116 24.8764 7.67452 24.8764Z" fill="#FF5400"/>
<path d="M37.6826 11.5452C25.0145 22.6945 36.8571 34.8111 36.8571 34.8111L49.0023 22.7809L37.6826 11.5452ZM40.9071 25.2268C40.4475 25.2268 39.9982 25.0917 39.616 24.8385C39.2338 24.5853 38.936 24.2254 38.7601 23.8043C38.5842 23.3833 38.5382 22.92 38.6278 22.473C38.7175 22.026 38.9388 21.6154 39.2639 21.2932C39.5889 20.9709 40.003 20.7514 40.4538 20.6625C40.9046 20.5736 41.3718 20.6192 41.7965 20.7936C42.2211 20.9681 42.5841 21.2634 42.8395 21.6423C43.0948 22.0213 43.2311 22.4668 43.2311 22.9225C43.2311 23.2251 43.171 23.5248 43.0542 23.8043C42.9374 24.0839 42.7663 24.3379 42.5505 24.5519C42.3346 24.7659 42.0785 24.9356 41.7965 25.0514C41.5145 25.1672 41.2123 25.2268 40.9071 25.2268Z" fill="#FF5400"/>
<path d="M19.391 17.9397C19.391 17.9397 22.3153 20.4648 29.1372 20.688C29.1372 20.688 27.7864 24.4805 29.5875 28.2705C29.5875 28.2705 24.114 24.7781 19.0908 26.4871C19.0908 26.4871 20.3666 22.1666 19.391 17.9397Z" fill="#390099"/>
</g>
</g>
</g>
<defs>
<clipPath id="clip0_169_126">
<rect width="212" height="47" fill="white"/>
</clipPath>
</defs>
</svg>
